# xmcd
#
# Track frame offsets:
#	150
#	14822
#	28425
#	38507
#	51917
#	62437
#	76597
#	90195
#	101477
#	110925
#	122720
#	135177
#
# Disc length: 1951 seconds
# Revision: 0
# Processed by: cddbd v1.5.2PL0 Copyright (c) Steve Scherf et al.
# Submitted via: dBpowerAMP V12.0
#
DISCID=92079d0c
DTITLE=THE BLUEGRASS ALBUM - 03 VOLUME THREE - CALIFORNIA CONNECTION
DYEAR=1983
DGENRE=Bluegrass
TTITLE0=Devil In Disguise
TTITLE1=Letter From My Darlin'
TTITLE2=A Hundred Years From Now
TTITLE3=Unfaithful One
TTITLE4=Down The Road
TTITLE5=I'd Rather Be Alone
TTITLE6=Big Spike Hammer
TTITLE7=Please Search Your Heart
TTITLE8=Hey Lonesome
TTITLE9=I'm Waiting To Hear You Call Me Darlin'
TTITLE10=Wall Around Your Heart
TTITLE11=Come Back Darlin'
EXTD=
EXTT0=
EXTT1=
EXTT2=
EXTT3=
EXTT4=
EXTT5=
EXTT6=
EXTT7=
EXTT8=
EXTT9=
EXTT10=
EXTT11=
PLAYORDER=
